HIERARCHY
ROOT ui
{
	 OFFSET 0 0 0
	 CHANNELS 3 XPosition YPosition Z Position
	 EndSite
	 {
	 OFFSET 0 -1 0
	 }
}
ROOT li
{
	 OFFSET 0 0 0
	 CHANNELS 3 XPosition YPosition Z Position
	 EndSite
	 {
	 OFFSET 0 -1 0
	 }
}
ROOT ul
{
	 OFFSET 0 0 0
	 CHANNELS 3 XPosition YPosition Z Position
	 EndSite
	 {
	 OFFSET 0 -1 0
	 }
}
ROOT ll
{
	 OFFSET 0 0 0
	 CHANNELS 3 XPosition YPosition Z Position
	 EndSite
	 {
	 OFFSET 0 -1 0
	 }
}
ROOT tt
{
	 OFFSET 0 0 0
	 CHANNELS 3 XPosition YPosition Z Position
	 EndSite
	 {
	 OFFSET 0 -1 0
	 }
}
ROOT tb
{
	 OFFSET 0 0 0
	 CHANNELS 3 XPosition YPosition Z Position
	 EndSite
	 {
	 OFFSET 0 -1 0
	 }
}
ROOT td
{
	 OFFSET 0 0 0
	 CHANNELS 3 XPosition YPosition Z Position
	 EndSite
	 {
	 OFFSET 0 -1 0
	 }
}
ROOT v
{
	 OFFSET 0 0 0
	 CHANNELS 3 XPosition YPosition Z Position
	 EndSite
	 {
	 OFFSET 0 -1 0
	 }
}
ROOT bn
{
	 OFFSET 0 0 0
	 CHANNELS 3 XPosition YPosition Z Position
	 EndSite
	 {
	 OFFSET 0 -1 0
	 }
}
MOTION
Frames: 24
Frame Time: 0.002
-0.02098516654968262	-0.0023309650421142578	0		0.6099745483398438	-2.487822265625	0		-0.9316954345703125	-0.06814752197265625	0		-0.38491302490234375	-2.57079052734375	0		1.955781982421875	-0.72930859375	0		3.59793798828125	-0.5238634033203124	0		4.92839501953125	-0.4852824401855469	0		5.9368466796875	0.44659222412109373	0		-0.28876495361328125	5.8696689453125	0		
0.00482985782623291	-0.003596398115158081	0		0.6398282470703125	-2.4861259765625	0		-0.9339896850585937	-0.08013320922851562	0		-0.43278280639648437	-2.5413125	0		1.95864111328125	-0.72633544921875	0		3.6101689453125	-0.4839771728515625	0		4.92841455078125	-0.46626950073242185	0		5.94483251953125	0.46252816772460936	0		-0.2738689575195313	5.87851318359375	0		
-0.018294557571411133	5.830990076065064E-4	0		0.6167521362304688	-2.47894189453125	0		-0.9201355590820313	-0.07833328247070312	0		-0.343763427734375	-2.525265380859375	0		2.01749755859375	-0.7249678955078125	0		3.61090576171875	-0.49401254272460937	0		4.9453720703125	-0.45445761108398436	0		5.9395927734375	0.4555700988769531	0		-0.25412908935546874	5.8732578125	0		
0.004512368202209472	-0.0037500770092010497	0		0.6059525146484375	-2.44692724609375	0		-0.9204976196289063	-0.09944479370117187	0		-0.4164587097167969	-2.482638671875	0		2.0193846435546874	-0.72206591796875	0		3.628990478515625	-0.47125375366210936	0		4.9423466796875	-0.4424710998535156	0		5.94451611328125	0.4634880676269531	0		-0.1342456817626953	5.88294482421875	0		
0.007423068046569824	6.815800070762635E-5	0		0.6058638916015625	-2.447068603515625	0		-0.9246553344726562	-0.10257128143310547	0		-0.36539862060546874	-2.468310302734375	0		2.0083984375	-0.7090739135742188	0		3.631919189453125	-0.46637518310546877	0		4.9562841796875	-0.43668121337890625	0		5.93538916015625	0.4645260009765625	0		-0.3037358703613281	5.857490234375	0		
2.542029917240143E-4	-0.007062233924865722	0		0.5798378295898438	-2.444996337890625	0		-0.9968287963867187	-0.11006951141357423	0		-0.4161923217773438	-2.443009033203125	0		2.0325238037109377	-0.688474365234375	0		3.637929931640625	-0.45656036376953124	0		4.9453857421875	-0.41766845703125	0		5.9403505859375	0.47139959716796875	0		-0.28786898803710936	5.8661220703125	0		
0.0072627182006835935	-3.8238900899887084E-4	0		0.5828870239257813	-2.440261962890625	0		-0.9809581909179688	-0.11750373840332032	0		-0.4299322509765625	-2.41713037109375	0		2.04343896484375	-0.6927835083007813	0		3.688727294921875	-0.47222921752929686	0		4.95246435546875	-0.40486614990234376	0		5.9572666015625	0.47012722778320315	0		-0.3050550537109375	5.86803515625	0		
0.007245288848876953	-6.79036021232605E-4	0		0.5640582885742188	-2.428353759765625	0		-0.9718930053710938	-0.10991810607910156	0		-0.4116837158203125	-2.39761962890625	0		2.07661865234375	-0.6753534545898437	0		3.674142822265625	-0.43027569580078123	0		4.95957763671875	-0.3930953369140625	0		5.93941650390625	0.48817514038085935	0		-0.27315789794921874	5.87541015625	0		
0.007276566028594971	-0.0010205340385437012	0		0.6140613403320313	-2.439175048828125	0		-0.97689794921875	-0.11423941802978516	0		-0.4134005432128906	-2.379954833984375	0		2.094808837890625	-0.6618118286132812	0		3.680977783203125	-0.45157440185546877	0		4.9706201171875	-0.3933958435058594	0		5.94335302734375	0.4799743957519531	0		-0.28741375732421875	5.86419970703125	0		
0.004320190906524658	-0.005374423027038574	0		0.5872542724609375	-2.436271728515625	0		-0.969861083984375	-0.1197241668701172	0		-0.40415182495117186	-2.37144189453125	0		2.142901123046875	-0.6636039428710937	0		3.68817431640625	-0.4419094543457031	0		4.9678447265625	-0.38059024047851564	0		5.9434208984375	0.47978231811523436	0		-0.268570556640625	5.85861865234375	0		
0.004456851005554199	-0.00579756498336792	0		0.5874727172851563	-2.43667529296875	0		-0.9697205810546875	-0.1201800765991211	0		-0.43486492919921876	-2.364572998046875	0		2.157246826171875	-0.6450943603515625	0		3.721235107421875	-0.4515342102050781	0		4.982865234375	-0.3939939880371094	0		5.943541015625	0.47955892944335937	0		-0.32262850952148436	5.8587197265625	0		
0.007686320781707764	-0.0022855710983276365	0		0.564816650390625	-2.429887451171875	0		-1.026464599609375	-0.11411107635498047	0		-0.4495337219238281	-2.35889892578125	0		2.181625244140625	-0.6287156372070313	0		3.70675634765625	-0.41971847534179685	0		4.9901962890625	-0.3813504638671875	0		5.94879296875	0.4872554626464844	0		-0.3065522766113281	5.86709228515625	0		
0.002968321084976196	0.0012750719785690307	0		0.5862406616210938	-2.420562744140625	0		-1.0221791381835938	-0.11067469024658202	0		-0.44012136840820315	-2.350491943359375	0		2.2061923828125	-0.5983651123046875	0		3.740825439453125	-0.4394106140136719	0		5.00451025390625	-0.375802978515625	0		5.9530966796875	0.49493426513671873	0		-0.2865639343261719	5.86139697265625	0		
0.0032606570720672607	7.62332022190094E-4	0		0.5606480712890625	-2.417801025390625	0		-1.0218828735351562	-0.11122320556640625	0		-0.4377177429199219	-2.348039794921875	0		2.2264951171875	-0.5999963989257813	0		3.769298095703125	-0.4230673828125	0		5.0107275390625	-0.3851993713378906	0		5.9483037109375	0.48767837524414065	0		-0.2864761047363281	5.8608740234375	0		
0.008560118675231933	-0.0038174688816070557	0		0.5781285400390626	-2.41247900390625	0		-1.0175015258789062	-0.10782931518554688	0		-0.5051967468261719	-2.337924560546875	0		2.247980224609375	-0.5876554565429688	0		3.771524658203125	-0.4364865112304688	0		5.0210693359375	-0.38665377807617185	0		5.94862548828125	0.48735394287109374	0		-0.2532747497558594	5.86701123046875	0		
-9.717220067977906E-4	0.004735328197479248	0		0.5526123657226563	-2.4107509765625	0		-1.001186279296875	-0.11556339263916016	0		-0.4386712646484375	-2.332126953125	0		2.260535400390625	-0.5722394409179687	0		3.765027099609375	-0.42583346557617185	0		5.02450146484375	-0.3830544738769531	0		5.94898876953125	0.48701446533203124	0		-0.3353157043457031	5.8442548828125	0		
0.004395438194274902	-8.638070225715637E-4	0		0.55615771484375	-2.4063125	0		-1.056783203125	-0.11760640716552734	0		-0.5270856323242188	-2.322832275390625	0		2.28210498046875	-0.5589180908203125	0		3.806368408203125	-0.43565374755859376	0		5.03390087890625	-0.38652313232421875	0		5.95854296875	0.5025760498046875	0		-0.30391433715820315	5.86239208984375	0		
0.01686855697631836	0.0014683680534362793	0		0.5627483520507812	-2.399904541015625	0		-0.9672423706054688	-0.10905144500732422	0		-0.48149948120117186	-2.3168359375	0		2.298760009765625	-0.5395507202148437	0		3.80709716796875	-0.4080826416015625	0		5.053501953125	-0.37209439086914065	0		5.97105712890625	0.5111028137207031	0		-0.2705954895019531	5.86851171875	0		
3.53644996881485E-4	0.0030841429233551027	0		0.5523475341796875	-2.394329345703125	0		-1.0427607421875	-0.10789994812011719	0		-0.5278532104492187	-2.305947998046875	0		2.30835693359375	-0.5281129760742187	0		3.814373046875	-0.4295764770507812	0		5.0609111328125	-0.3795494689941406	0		5.9625068359375	0.5108301696777344	0		-0.285411376953125	5.858099609375	0		
-0.025169612884521485	0.0027943220138549807	0		0.559790283203125	-2.40591796875	0		-0.9662948608398437	-0.11019820404052734	0		-0.49132833862304687	-2.308847412109375	0		2.33596240234375	-0.5168408203125	0		3.818919189453125	-0.4240380554199219	0		5.06446533203125	-0.372963623046875	0		5.95789013671875	0.5025206604003907	0		-0.30020870971679686	5.8476962890625	0		
-0.019731130599975586	-0.0017791600227355956	0		0.5534420166015624	-2.395360595703125	0		-1.0638675537109374	-0.11581536102294922	0		-0.563733642578125	-2.303690185546875	0		2.345568359375	-0.5053850402832031	0		3.845397705078125	-0.425701171875	0		5.064953125	-0.3733426208496094	0		5.96342919921875	0.5101193542480469	0		-0.28480575561523436	5.8570185546875	0		
0.001778486967086792	0.0015126839876174927	0		0.5559984130859374	-2.393872314453125	0		-1.0633919677734376	-0.11635172271728515	0		-0.5242005004882813	-2.304584228515625	0		2.376024658203125	-0.5091144104003906	0		3.855119140625	-0.40119122314453126	0		5.08846337890625	-0.370931884765625	0		5.96797314453125	0.518735107421875	0		-0.3034532165527344	5.86068408203125	0		
0.009309784889221191	0.007959917068481445	0		0.560571044921875	-2.389382568359375	0		-1.078828125	-0.10671299743652343	0		-0.553590576171875	-2.295799072265625	0		2.400719970703125	-0.4867696838378906	0		3.879469970703125	-0.41480767822265624	0		5.0889375	-0.3712900390625	0		5.96350146484375	0.5264461059570312	0		-0.30313528442382814	5.8601904296875	0		
0.0026996641159057616	5.654129981994629E-4	0		0.551158203125	-2.381736572265625	0		-1.0434090576171875	-0.11153046417236329	0		-0.5191307373046875	-2.301594970703125	0		2.44035595703125	-0.46954611206054686	0		3.9000009765625	-0.40836968994140627	0		5.106306640625	-0.38179510498046876	0		5.97294482421875	0.5260364990234375	0		-0.3169268798828125	5.84785546875	0		
